<?xml version="1.0" encoding="UTF-8" standalone="no"?>
<!-- Created with Inkscape (http://www.inkscape.org/) -->

<svg
   width="56"
   height="56"
   viewBox="0 0 14.816666 14.816666"
   version="1.1"
   id="svg2532"
   inkscape:version="1.2.2 (b0a84865, 2022-12-01)"
   sodipodi:docname="logo_opennept4une.svg"
   xmlns:inkscape="http://www.inkscape.org/namespaces/inkscape"
   xmlns:sodipodi="http://sodipodi.sourceforge.net/DTD/sodipodi-0.dtd"
   xmlns="http://www.w3.org/2000/svg"
   xmlns:svg="http://www.w3.org/2000/svg">
  <sodipodi:namedview
     id="namedview2534"
     pagecolor="#ffffff"
     bordercolor="#000000"
     borderopacity="0.25"
     inkscape:showpageshadow="2"
     inkscape:pageopacity="0.0"
     inkscape:pagecheckerboard="0"
     inkscape:deskcolor="#d1d1d1"
     inkscape:document-units="mm"
     showgrid="false"
     inkscape:zoom="14.638496"
     inkscape:cx="41.295226"
     inkscape:cy="18.273735"
     inkscape:window-width="3008"
     inkscape:window-height="1639"
     inkscape:window-x="2560"
     inkscape:window-y="25"
     inkscape:window-maximized="1"
     inkscape:current-layer="layer1" />
  <defs
     id="defs2529" />
  <g
     inkscape:label="Layer 1"
     inkscape:groupmode="layer"
     id="layer1"
     transform="translate(14.062577,-14.386105)">
    <g
       id="g4181"
       transform="matrix(0.0461525,0,0,0.0461525,-11.500256,15.838817)">
      <path
         id="path1097"
         style="fill:#408edf;fill-opacity:1;stroke-width:2.93455;stroke-dasharray:none"
         class="st0"
         d="m 105.90811,14.389149 c -1.60339,-0.01166 -3.20715,0.01013 -4.80901,0.06615 -32.88288,1.06417 -65.117686,16.393833 -86.468627,41.540614 -17.760532,20.758678 -28.219761,47.828737 -28.671633,75.174737 -0.52574,27.08478 8.646589,54.48885 25.463561,75.78607 12.712897,16.07766 29.67498,28.74693 48.674029,36.42672 2.664357,-6.94707 5.330424,-13.89332 7.996929,-20.83956 -23.76258,-20.61688 -41.610505,-49.03157 -41.62123,-81.87304 -2.36e-4,-0.7687 0.0079,-1.54208 0.02221,-2.3244 0.01427,-0.7762 0.03419,-1.55564 0.06355,-2.33423 0.02937,-0.77817 0.068,-1.55477 0.113168,-2.3337 0.0456,-0.78623 0.102166,-1.56632 0.163299,-2.33836 0.06153,-0.77725 0.129693,-1.55766 0.208772,-2.33836 0.07842,-0.77425 0.160528,-1.55148 0.257867,-2.33371 0.967859,-7.77794 2.84965,-15.49288 5.995498,-22.78982 0.754042,-1.74857 1.598766,-4.150487 2.940907,-6.457485 0.180362,-0.310025 0.358243,-0.593866 0.5302,-0.85628 h 0.0046 c 1.302086,-1.986997 3.194501,-3.952816 5.931939,-4.794538 2.212739,-0.68071 4.327693,1.30026 3.79305,3.552754 -2.278499,9.544379 -2.839372,25.268069 0.860929,33.711119 0.478532,1.09195 1.015284,1.73086 1.717725,2.34249 0.125328,0.10914 0.272556,0.22707 0.443901,0.35812 1.094989,0.83787 2.670943,1.60718 4.413683,2.95951 0.255929,0.1986 0.506913,0.40865 0.752409,0.62528 0.506991,0.44722 1.000685,0.94792 1.468127,1.51361 0.608097,0.73582 1.053913,1.54829 1.377693,2.36988 0.106364,0.26995 0.201084,0.54298 0.285772,0.8201 0.08289,0.27133 0.15329,0.54377 0.217557,0.82011 0.444726,1.912 0.474168,3.81572 0.398425,5.50612 -0.02149,0.47945 -0.05396,0.94361 -0.09044,1.387 -0.03723,0.45209 -0.07873,0.86589 -0.117822,1.23248 -0.177983,1.67671 -1.70493,2.87574 -3.376022,2.651 -2.31189,-0.31109 -4.458161,-1.11122 -5.646684,-1.1467 -0.0076,3e-5 -0.0151,3e-5 -0.02273,0 -0.08283,-0.003 -0.173681,-2.9e-4 -0.267167,0.005 -0.07077,0.004 -0.03309,0.007 -0.08165,0.0134 -3e-4,0.007 2.56e-4,0.0105 0,0.018 -0.0029,0.0824 -9.66e-4,0.19453 0.0046,0.32195 0.04761,1.08052 0.5733,3.11092 1.359607,5.17488 0.17699,0.46457 0.36245,0.92489 0.552939,1.38234 1.348892,3.23956 3.004274,6.3411 3.702098,7.69927 3.625988,7.05752 10.243716,16.16629 17.700728,22.08703 0.354629,0.28158 0.710498,0.55721 1.069186,0.82475 0.3585,0.26743 0.718292,0.52368 1.079003,0.77515 0.368137,0.25661 0.727316,0.49964 1.082622,0.72967 0.34932,0.2261 0.714611,0.45411 1.09244,0.67955 1.118171,0.66709 2.240293,1.24199 3.358452,1.7265 2.26202,-5.92085 4.519703,-11.84294 6.76961,-17.76842 -10.002701,-4.48767 -18.217793,-12.76776 -22.630143,-22.80171 -1.011953,-1.75364 -1.625451,-3.97136 -2.341973,-5.72988 -4.530811,-15.00032 0.178893,-32.23405 11.180711,-43.34929 3.47386,-3.617091 7.573531,-6.603613 12.043193,-8.854757 2.059509,-4.434878 4.496555,-8.685268 7.195425,-12.716019 0.686723,-1.025737 1.883052,-3.087111 3.303675,-5.161441 1.419446,-2.072613 3.01821,-4.221271 5.211052,-5.723682 0.002,-0.0012 0.003,-0.0029 0.005,-0.0041 0.11253,-0.0778 0.20979,-0.139103 0.25373,-0.167953 0.0165,-0.0122 0.0333,-0.02428 0.0501,-0.03617 -0.0555,0.03485 0.0311,-0.01716 0.0315,-0.01799 0.68259,-0.436684 1.44959,-0.812978 2.34715,-1.010792 0.5045,-0.103821 0.27395,-0.13387 1.45934,-0.162783 0.009,-4.1e-5 0.0182,-4.1e-5 0.0274,0 1.98014,0.05871 3.39326,1.035442 4.57233,2.057239 1.17908,1.021798 2.1837,2.231296 3.10885,3.466455 1.85032,2.470296 3.47749,5.210691 4.08296,6.018238 h -0.005 c 3.18194,4.242364 6.06712,8.704988 8.48579,13.390397 8.39128,4.200724 15.5038,10.967848 19.78948,19.359538 7.04003,13.30747 6.72341,30.17675 -0.9064,43.17359 -4.6311,8.07974 -11.91701,14.65532 -20.4742,18.33583 2.27286,5.91496 4.54285,11.83077 6.81302,17.74672 5.00592,-1.98188 9.87023,-5.76737 14.15262,-10.44742 5.79009,-6.32775 10.46307,-14.18004 13.11496,-20.50108 0.82521,-1.96792 2.12398,-4.3116 3.08612,-6.59804 0.90496,-2.15057 1.17074,-4.02654 1.10536,-4.67207 -0.21485,0.006 -0.38238,-0.0201 -0.89711,0.13592 -1.4969,0.45362 -3.68906,1.99499 -3.80183,2.11615 -1.12937,1.21537 -3.03176,1.2805 -4.2416,0.1452 l -0.0729,-0.0682 c -0.269,-0.25356 -0.48871,-0.55475 -0.64802,-0.88832 -1.44809,-3.00919 -1.829,-5.92372 -1.27331,-8.4739 0.55568,-2.55016 1.92087,-4.58017 3.36723,-6.30814 2.89274,-3.45592 6.12035,-6.08938 7.3639,-9.13123 3.72847,-9.12134 2.51922,-21.06105 2.51922,-32.01613 -0.002,-2.220162 2.32839,-3.670096 4.31912,-2.687174 5.29655,2.60533 6.99574,8.288604 8.42429,12.063344 3.47269,9.17707 5.17621,18.24496 6.2942,27.71975 4.04975,34.30041 -16.14867,68.89677 -40.6983,91.1314 2.58282,6.70273 5.16989,13.40347 7.76852,20.10007 28.69671,-11.67991 52.52183,-34.893 64.46997,-63.54136 8.44167,-19.93838 11.47835,-42.29031 8.2305,-63.68345 C 219.41635,93.280848 209.21785,71.243307 193.5811,53.899822 179.06692,37.671937 159.92225,25.592668 139.09833,19.422434 128.35761,16.199093 117.13179,14.470796 105.90811,14.389149 Z M 79.832694,191.9101 c -3.902616,10.21512 -7.820385,20.42491 -11.739335,30.63378"
         sodipodi:nodetypes="sccccccssssssscscccccscsccsscssccccccsssccssssccccccccsscccccccsscccccccscscsccccsscccccccccccscc" />
      <g
         id="g3442"
         transform="translate(-0.84420488)">
        <path
           style="fill:#000000;fill-opacity:1;stroke:none;stroke-width:4.07576;stroke-dasharray:none;stroke-opacity:1"
           d="m 97.22334,119.31162 c 0,20.19934 0.862512,41.25384 -0.702906,61.37951 -0.531001,6.82764 -2.830624,17.55287 -12.188723,15.64982 -13.261818,-2.69742 -25.886391,-18.44239 -31.701122,-29.76002 -1.508944,-2.93684 -8.550228,-15.95678 -4.927695,-18.39696 2.17257,-1.46414 6.036358,0.27747 8.390018,0.59423 0.310606,-2.9129 0.596687,-7.49925 -1.399059,-9.91428 -2.906751,-3.51756 -7.120473,-3.68638 -9.231022,-8.50234 -4.238269,-9.67056 -3.442068,-25.51743 -1.03379,-35.605439 -4.266506,1.311866 -5.912945,6.664969 -7.539152,10.436089 -4.822079,11.185 -6.583925,23.50512 -6.580236,35.60544 0.0116,35.52257 21.675107,65.937 49.110953,86.48012 5.913572,4.42795 12.085591,8.5496 18.416613,12.35569 2.538421,1.52614 5.520541,3.93441 8.594901,4.05964 3.03383,0.12273 6.02421,-1.94603 8.59393,-3.31068 7.47287,-3.9694 14.32814,-9.17332 20.87218,-14.49326 26.2498,-21.33996 49.15269,-57.80422 44.98871,-93.07203 -1.10256,-9.34399 -2.7631,-18.14037 -6.11986,-27.01104 -1.44692,-3.8233 -3.12406,-8.555751 -6.94673,-10.43609 0,10.69514 1.39228,23.02324 -2.74714,33.1499 -3.28061,8.02475 -14.44784,11.26791 -9.53061,21.48606 l 0.073,0.068 c 1.65013,-1.77291 8.73263,-5.65861 9.86463,-1.25089 0.95338,3.71462 -3.00498,10.11991 -4.40588,13.4607 -5.58206,13.30783 -19.18949,32.288 -34.99831,34.15298 -9.18314,1.08351 -10.31884,-10.6583 -11.30168,-16.96414 -3.01969,-19.3841 -1.91347,-40.04079 -0.97606,-59.54704 l 16.57495,2.45554 c -0.12529,-15.16116 -6.48573,-28.597923 -15.42515,-40.516552 -1.82507,-2.434172 -6.23524,-10.753445 -9.79026,-10.328083 -3.84724,0.460352 -7.820314,8.021476 -9.775549,10.941986 -7.916069,11.821598 -13.466227,25.473229 -13.506135,39.902649 z"
           id="path392"
           sodipodi:nodetypes="cscscccccccssccccccccccccccccsccc" />
        <path
           style="fill:#ffffff;fill-opacity:0.246988;stroke:none;stroke-width:0.613807;stroke-dasharray:none"
           d="m 81.876147,122.38106 15.347193,-3.06944 c 0,20.19934 0.862512,41.25384 -0.702906,61.37951 -0.531001,6.82764 -2.830624,17.55287 -12.188723,15.64982 -13.261818,-2.69742 -25.886391,-18.44239 -31.701122,-29.76002 -1.508944,-2.93684 -8.550228,-15.95678 -4.927695,-18.39696 2.17257,-1.46414 6.036358,0.27747 8.390018,0.59423 0.310606,-2.9129 0.596687,-7.49925 -1.399059,-9.91428 -2.906751,-3.51756 -7.120473,-3.68638 -9.231022,-8.50234 -4.238269,-9.67056 -3.442068,-25.51743 -1.03379,-35.605439 -4.266506,1.311866 -5.912945,6.664969 -7.539152,10.436089 -4.822079,11.185 -6.583925,23.50512 -6.580236,35.60544 0.0116,35.52257 21.675107,65.937 49.110953,86.48012 5.913572,4.42795 12.085591,8.5496 18.416613,12.35569 2.538421,1.52614 5.520061,3.93441 8.594431,4.05964 -0.0643,-172.233072 -0.1049,0.0599 -0.9015,-172.137294 -3.51321,-0.315919 -7.845749,7.349011 -10.281315,11.182149 -7.339673,11.917678 -12.07085,21.155075 -13.169902,36.011965"
           id="path465"
           sodipodi:nodetypes="ccscscccccccsscccc" />
      </g>
    </g>
  </g>
</svg>
